<svg xmlns="http://www.w3.org/2000/svg" viewBox="0 0 24 24">
  <defs>
    <mask maskUnits="userSpaceOnUse" id="a">
      <path d="M12 22c4.97 0 9-4.03 9-9-4.97 0-9 4.03-9 9zM5.6 10.25c0 1.38 1.12 2.5 2.5 2.5.53 0 1.01-.1599 1.42-.44l-.02.1901c0 1.38 1.12 2.5 2.5 2.5s2.5-1.12 2.5-2.5l-.02-.1901c.4.28.89.44 1.42.44 1.38 0 2.5-1.12 2.5-2.5 0-1-.59-1.85-1.43-2.25.84-.4 1.43-1.25 1.43-2.25 0-1.38-1.12-2.5-2.5-2.5-.53 0-1.01.1599-1.42.44l.02-.19C14.5 2.1198 13.38 1 12 1S9.5 2.1198 9.5 3.5l.02.19c-.4-.28-.89-.44-1.42-.44-1.38 0-2.5 1.12-2.5 2.5 0 1 .59 1.85 1.43 2.25-.84.4-1.43 1.25-1.43 2.25ZM12 5.5c1.38 0 2.5 1.12 2.5 2.5s-1.12 2.5-2.5 2.5S9.5 9.38 9.5 8s1.12-2.5 2.5-2.5zM3 13c0 4.97 4.03 9 9 9 0-4.97-4.03-9-9-9z" fill="#e3dcfa"/>
    </mask>
  </defs>
  <rect width="24" height="24" ry="4.3908" paint-order="markers stroke fill"/>
  <path d="M-.7795-2.7796h25.559v28.5592H-.7795Z" mask="url(#a)" fill="#e3dcfa"/>
  <circle r="2.5" cy="8" cx="12" paint-order="markers stroke fill"/>
</svg>