<?xml version="1.0" encoding="UTF-8" standalone="no"?>
<!-- Created with Inkscape (http://www.inkscape.org/) -->

<svg
   width="6.3499999mm"
   height="6.3499999mm"
   viewBox="0 0 6.3499999 6.3499999"
   version="1.1"
   id="svg1"
   xmlns="http://www.w3.org/2000/svg"
   xmlns:svg="http://www.w3.org/2000/svg">
  <defs
     id="defs1">
    <mask
       maskUnits="userSpaceOnUse"
       id="mask-powermask-path-effect4">
      <path
         id="mask-powermask-path-effect4_box"
         style="fill:#ffffff;fill-opacity:1"
         d="m 31.808333,134.46664 h 6.7625 v 7.55628 h -6.7625 z" />
      <circle
         style="fill:#f9f9f9;stroke:#000000;stroke-width:0;stroke-linecap:square;stroke-linejoin:round;stroke-miterlimit:0;paint-order:markers stroke fill"
         id="circle4"
         r="0.66145784"
         cy="137.31874"
         cx="35.189583"
         d="m 35.851041,137.31874 a 0.66145784,0.66145784 0 0 1 -0.661458,0.66146 0.66145784,0.66145784 0 0 1 -0.661458,-0.66146 0.66145784,0.66145784 0 0 1 0.661458,-0.66146 0.66145784,0.66145784 0 0 1 0.661458,0.66146 z" />
    </mask>
  </defs>
  <path
     d="m 35.189583,141.02292 c 1.31498,0 2.38125,-1.06627 2.38125,-2.38125 -1.314979,0 -2.38125,1.06627 -2.38125,2.38125 z m -1.693333,-3.10886 c 0,0.36513 0.296333,0.66146 0.661458,0.66146 0.14023,0 0.26723,-0.0423 0.375709,-0.11642 l -0.0053,0.0503 c 0,0.36512 0.296333,0.66145 0.661458,0.66145 0.365125,0 0.661458,-0.29633 0.661458,-0.66145 l -0.0053,-0.0503 c 0.10583,0.0741 0.235476,0.11642 0.375705,0.11642 0.365125,0 0.661459,-0.29633 0.661459,-0.66146 0,-0.26458 -0.156104,-0.48948 -0.378354,-0.59531 0.22225,-0.10583 0.378354,-0.33073 0.378354,-0.59531 0,-0.36513 -0.296334,-0.66146 -0.661459,-0.66146 -0.140229,0 -0.267229,0.0423 -0.375708,0.11642 l 0.0053,-0.0503 c 0,-0.36513 -0.296333,-0.66146 -0.661458,-0.66146 -0.365125,0 -0.661459,0.29633 -0.661459,0.66146 l 0.0053,0.0503 c -0.10583,-0.0741 -0.235475,-0.11642 -0.375705,-0.11642 -0.365125,0 -0.661458,0.29633 -0.661458,0.66146 0,0.26458 0.156104,0.48948 0.378354,0.59531 -0.22225,0.10583 -0.378354,0.33073 -0.378354,0.59531 z m 1.693333,-1.25677 c 0.365125,0 0.661459,0.29634 0.661459,0.66146 0,0.36513 -0.296334,0.66146 -0.661459,0.66146 -0.365125,0 -0.661458,-0.29633 -0.661458,-0.66146 0,-0.36512 0.296333,-0.66146 0.661458,-0.66146 z m -2.38125,1.98438 c 0,1.31498 1.066271,2.38125 2.38125,2.38125 0,-1.31498 -1.06627,-2.38125 -2.38125,-2.38125 z"
     id="path2"
     style="fill:#e6e6e6;stroke-width:0.264583"
     transform="translate(-32.014583,-135.20208)"
     mask="url(#mask-powermask-path-effect4)" />
</svg>
